<svg xmlns="http://www.w3.org/2000/svg" viewBox="0 0 100 100" fill="none" shape-rendering="auto" aria-hidden="true"><!-- Generated by DiceBear (https://www.dicebear.com) --><metadata xmlns:rdf="http://www.w3.org/1999/02/22-rdf-syntax-ns#" xmlns:xsi="http://www.w3.org/2001/XMLSchema-instance" xmlns:dc="http://purl.org/dc/elements/1.1/" xmlns:dcterms="http://purl.org/dc/terms/"><rdf:RDF><rdf:Description><dc:title>Sprouts</dc:title><dc:creator>DiceBear</dc:creator><dc:source xsi:type="dcterms:URI">https://www.dicebear.com</dc:source><dcterms:license xsi:type="dcterms:URI">https://creativecommons.org/publicdomain/zero/1.0/</dcterms:license><dc:rights>“Sprouts” (https://www.dicebear.com) by “DiceBear”, licensed under “CC0 1.0” (https://creativecommons.org/publicdomain/zero/1.0/)</dc:rights></rdf:Description></rdf:RDF></metadata><defs><g id="plant-palm-8c433293"><g opacity=".15" transform="translate(-14 -5.5)"><path d="M50 72V34" stroke="#8a5c13" stroke-width="4" stroke-linecap="round" stroke-linejoin="round"/><path d="M50 34c-8-4-16-2-22 6m22-6c8-4 16-2 22 6m-22-6c-4-10-12-14-20-12m20 12c4-10 12-14 20-12" stroke="#8a5c13" stroke-width="4" stroke-linecap="round" stroke-linejoin="round" fill="none"/><path d="M50 34V24" stroke="#8a5c13" stroke-width="4" stroke-linecap="round" stroke-linejoin="round"/></g><path d="M33 63V25" stroke="#b97d1c" stroke-width="4" stroke-linecap="round" stroke-linejoin="round"/><path d="M33 25c-8-4-16-2-22 6m22-6c8-4 16-2 22 6m-22-6c-4-10-12-14-20-12m20 12c4-10 12-14 20-12" stroke="#b97d1c" stroke-width="4" stroke-linecap="round" stroke-linejoin="round" fill="none"/><path d="M33 25V15" stroke="#b97d1c" stroke-width="4" stroke-linecap="round" stroke-linejoin="round"/></g><clipPath id="dbspp-taper"><path d="M7 4h52l-6 44H13Z"/></clipPath><g id="pot-taper-8c433293"><path d="M10 7.5h52l-6 44H16Z" fill="#8a5c13" opacity=".15"/><path d="M7 4h52l-6 44H13Z" fill="#f0e2cd"/><g clip-path="url(#dbspp-taper)"><path d="M7 4h52l-6 44H13Zm3 3.5h52l-6 44H16Z" fill="#ffffff" opacity=".16" fill-rule="evenodd"/><path d="M7 4h52l-6 44H13ZM4 .5h52l-6 44H10Z" fill="#8a5c13" opacity=".1" fill-rule="evenodd"/></g></g><g id="pattern-stripes-8c433293"><rect x="6" y="3" width="5" height="12" rx="2.5" fill="#ffffff" opacity=".18"/><rect x="17" y="3" width="5" height="12" rx="2.5" fill="#ffffff" opacity=".18"/></g><g id="eyes-wide-8c433293"><ellipse cx="9" cy="10" rx="5.5" ry="7" fill="#ffffff"/><ellipse cx="31" cy="10" rx="5.5" ry="7" fill="#ffffff"/><circle cx="9" cy="10" r="2.4" fill="#8a5c13"/><circle cx="31" cy="10" r="2.4" fill="#8a5c13"/></g><g id="mouth-frown-8c433293"><path d="M2 8q8-7 16 0" stroke="#8a5c13" stroke-width="3" stroke-linecap="round" stroke-linejoin="round"/></g><g id="animation-none-8c433293"></g><clipPath id="clip-8c433293"><rect width="100" height="100" rx="0" ry="0"/></clipPath></defs><g clip-path="url(#clip-8c433293)"><rect width="100" height="100" fill="#f4ead9"/><g class="dbsp-a"><g class="dbsp-g"><use transform="translate(17 9)" href="#plant-palm-8c433293"/></g><use transform="translate(17 58)" href="#pot-taper-8c433293"/><use transform="translate(36 85)" href="#pattern-stripes-8c433293"/><g class="dbsp-e"><use transform="translate(30 67)" href="#eyes-wide-8c433293"/></g><use transform="translate(40 81)" href="#mouth-frown-8c433293"/></g><use href="#animation-none-8c433293"/></g></svg>